<svg width="20" height="20" viewBox="0 0 20 20" fill="none" xmlns="http://www.w3.org/2000/svg">
<path d="M15.832 7.50081C16.2923 7.50081 16.6654 7.87391 16.6654 8.33415L16.6654 17.5008C16.6654 17.9611 16.2923 18.3341 15.832 18.3341C15.3718 18.3341 14.9987 17.9611 14.9987 17.5008L14.9987 8.33415C14.9987 7.87391 15.3718 7.50081 15.832 7.50081Z" fill="#777E91"/>
<path d="M15.832 1.66748C16.2923 1.66748 16.6654 2.04058 16.6654 2.50081V5.00081C16.6654 5.46105 16.2923 5.83415 15.832 5.83415C15.3718 5.83415 14.9987 5.46105 14.9987 5.00081V2.50081C14.9987 2.04058 15.3718 1.66748 15.832 1.66748Z" fill="#777E91"/>
<path d="M10.832 2.50081C10.832 2.04058 10.4589 1.66748 9.9987 1.66748C9.53846 1.66748 9.16537 2.04058 9.16537 2.50081L9.16537 11.6675C9.16537 12.1277 9.53846 12.5008 9.9987 12.5008C10.4589 12.5008 10.832 12.1277 10.832 11.6675L10.832 2.50081Z" fill="#777E91"/>
<path d="M10.832 15.0008C10.832 14.5406 10.4589 14.1675 9.9987 14.1675C9.53846 14.1675 9.16537 14.5406 9.16537 15.0008L9.16537 17.5008C9.16537 17.9611 9.53846 18.3341 9.9987 18.3341C10.4589 18.3341 10.832 17.9611 10.832 17.5008L10.832 15.0008Z" fill="#777E91"/>
<path d="M4.9987 2.50081C4.9987 2.04058 4.6256 1.66748 4.16537 1.66748C3.70513 1.66748 3.33203 2.04058 3.33203 2.50081L3.33203 8.33415C3.33203 8.79438 3.70513 9.16748 4.16537 9.16748C4.6256 9.16748 4.9987 8.79438 4.9987 8.33415L4.9987 2.50081Z" fill="#777E91"/>
<path d="M4.9987 11.6675C4.9987 11.2072 4.6256 10.8341 4.16536 10.8341C3.70513 10.8341 3.33203 11.2072 3.33203 11.6675L3.33203 17.5008C3.33203 17.9611 3.70513 18.3341 4.16536 18.3341C4.6256 18.3341 4.9987 17.9611 4.9987 17.5008L4.9987 11.6675Z" fill="#777E91"/>
<path fill-rule="evenodd" clip-rule="evenodd" d="M15.8346 9.16748C14.4539 9.16748 13.3346 8.04819 13.3346 6.66748C13.3346 5.28677 14.4539 4.16748 15.8346 4.16748C17.2153 4.16748 18.3346 5.28677 18.3346 6.66748C18.3346 8.04819 17.2153 9.16748 15.8346 9.16748ZM15.8346 7.50081C15.3744 7.50081 15.0013 7.12772 15.0013 6.66748C15.0013 6.20724 15.3744 5.83415 15.8346 5.83415C16.2949 5.83415 16.668 6.20724 16.668 6.66748C16.668 7.12772 16.2949 7.50081 15.8346 7.50081Z" fill="#777E91"/>
<path fill-rule="evenodd" clip-rule="evenodd" d="M7.5013 13.3341C7.5013 14.7149 8.62059 15.8341 10.0013 15.8341C11.382 15.8341 12.5013 14.7149 12.5013 13.3341C12.5013 11.9534 11.382 10.8341 10.0013 10.8341C8.62059 10.8341 7.5013 11.9534 7.5013 13.3341ZM9.16797 13.3341C9.16797 13.7944 9.54107 14.1675 10.0013 14.1675C10.4615 14.1675 10.8346 13.7944 10.8346 13.3341C10.8346 12.8739 10.4615 12.5008 10.0013 12.5008C9.54107 12.5008 9.16797 12.8739 9.16797 13.3341Z" fill="#777E91"/>
<path fill-rule="evenodd" clip-rule="evenodd" d="M1.66797 10.0008C1.66797 11.3815 2.78726 12.5008 4.16797 12.5008C5.54868 12.5008 6.66797 11.3815 6.66797 10.0008C6.66797 8.6201 5.54868 7.50081 4.16797 7.50081C2.78726 7.50081 1.66797 8.6201 1.66797 10.0008ZM3.33464 10.0008C3.33464 10.4611 3.70773 10.8341 4.16797 10.8341C4.62821 10.8341 5.0013 10.4611 5.0013 10.0008C5.0013 9.54058 4.62821 9.16748 4.16797 9.16748C3.70773 9.16748 3.33464 9.54058 3.33464 10.0008Z" fill="#777E91"/>
</svg>
