<svg width="16" height="16" viewBox="0 0 16 16" fill="none" xmlns="http://www.w3.org/2000/svg">
<path fill-rule="evenodd" clip-rule="evenodd" d="M4.66536 10.6006V12.6631L8.04017 10.6689L8.39292 10.6631C9.79551 10.6401 11.0578 10.4989 12.0016 10.3553C12.5973 10.2647 13.0112 9.84895 13.1011 9.32696C13.2258 8.60293 13.332 7.68562 13.332 6.66634C13.332 5.64706 13.2258 4.72976 13.1011 4.00572C13.0112 3.48373 12.5973 3.06802 12.0016 2.97739C10.9693 2.82031 9.55759 2.66634 7.9987 2.66634C6.43981 2.66634 5.02809 2.82031 3.99578 2.97739C3.40012 3.06802 2.98623 3.48373 2.89632 4.00572C2.7716 4.72976 2.66536 5.64706 2.66536 6.66634C2.66536 7.68562 2.7716 8.60293 2.89632 9.32696C2.9744 9.78024 3.29106 10.1436 3.75275 10.2971L4.66536 10.6006ZM1.58234 3.77939C1.77579 2.65626 2.66851 1.83066 3.79521 1.65922C4.87477 1.49496 6.35576 1.33301 7.9987 1.33301C9.64164 1.33301 11.1226 1.49496 12.2022 1.65922C13.3289 1.83066 14.2216 2.65626 14.4151 3.77939C14.5499 4.56215 14.6654 5.55651 14.6654 6.66634C14.6654 7.77617 14.5499 8.77053 14.4151 9.5533C14.2216 10.6764 13.3289 11.502 12.2022 11.6735C11.2146 11.8237 9.89096 11.9721 8.41475 11.9963L4.33785 14.4053C3.89344 14.6679 3.33203 14.3476 3.33203 13.8314V11.5623C2.42974 11.2623 1.7484 10.5174 1.58234 9.5533C1.44751 8.77053 1.33203 7.77617 1.33203 6.66634C1.33203 5.55651 1.44751 4.56215 1.58234 3.77939Z" fill="#FCFCFD"/>
<path fill-rule="evenodd" clip-rule="evenodd" d="M4.66667 4.66699C4.29848 4.66699 4 4.96547 4 5.33366C4 5.70185 4.29848 6.00033 4.66667 6.00033H11.3333C11.7015 6.00033 12 5.70185 12 5.33366C12 4.96547 11.7015 4.66699 11.3333 4.66699H4.66667ZM4.66667 7.33366C4.29848 7.33366 4 7.63214 4 8.00033C4 8.36852 4.29848 8.66699 4.66667 8.66699H7.33333C7.70152 8.66699 8 8.36852 8 8.00033C8 7.63214 7.70152 7.33366 7.33333 7.33366H4.66667Z" fill="#FCFCFD"/>
</svg>
