<svg width="16" height="16" viewBox="0 0 16 16" fill="none" xmlns="http://www.w3.org/2000/svg">
<path d="M4 13.3332C4 12.965 4.29848 12.6665 4.66667 12.6665H14C14.3682 12.6665 14.6667 12.965 14.6667 13.3332C14.6667 13.7014 14.3682 13.9998 14 13.9998H4.66667C4.29848 13.9998 4 13.7014 4 13.3332Z" fill="#777E91"/>
<path fill-rule="evenodd" clip-rule="evenodd" d="M13.9188 4.58581L11.4139 2.0809C10.6329 1.29985 9.36653 1.29986 8.58548 2.0809L1.41391 9.25248C0.632864 10.0335 0.632862 11.2999 1.41391 12.0809L2.55198 13.219C3.05208 13.7191 3.73036 14 4.4376 14H6.22846C6.93571 14 7.61398 13.7191 8.11408 13.219L13.9188 7.41424C14.6999 6.63319 14.6999 5.36686 13.9188 4.58581ZM10.4711 3.02371L12.976 5.52862C13.2364 5.78897 13.2364 6.21108 12.976 6.47143L10.0569 9.39055L6.60917 5.94283L9.52829 3.02371C9.78864 2.76336 10.2108 2.76336 10.4711 3.02371ZM5.60917 6.94283L2.35672 10.1953C2.09637 10.4556 2.09637 10.8777 2.35672 11.1381L3.49479 12.2762C3.74484 12.5262 4.08398 12.6667 4.4376 12.6667H6.22846C6.58209 12.6667 6.92122 12.5262 7.17127 12.2762L9.05689 10.3905L5.60917 6.94283Z" fill="#777E91"/>
</svg>
