<svg width="32" height="32" viewBox="0 0 32 32" fill="none" xmlns="http://www.w3.org/2000/svg">
<g clip-path="url(#clip0_569_88)">
<path d="M12.9032 1.78792C14.8195 0.681553 17.1805 0.681553 19.0968 1.78792L26.7596 6.21208C28.6759 7.31845 29.8564 9.3631 29.8564 11.5758V20.4242C29.8564 22.6369 28.6759 24.6816 26.7596 25.7879L19.0968 30.2121C17.1805 31.3184 14.8195 31.3184 12.9032 30.2121L5.24037 25.7879C3.32408 24.6816 2.14359 22.6369 2.14359 20.4242V11.5758C2.14359 9.3631 3.32408 7.31845 5.24037 6.21208L12.9032 1.78792Z" fill="black"/>
<mask id="mask0_569_88" style="mask-type:alpha" maskUnits="userSpaceOnUse" x="2" y="0" width="28" height="32">
<path d="M12.9032 1.78792C14.8195 0.681553 17.1805 0.681553 19.0968 1.78792L26.7596 6.21208C28.6759 7.31845 29.8564 9.3631 29.8564 11.5758V20.4242C29.8564 22.6369 28.6759 24.6816 26.7596 25.7879L19.0968 30.2121C17.1805 31.3184 14.8195 31.3184 12.9032 30.2121L5.24037 25.7879C3.32408 24.6816 2.14359 22.6369 2.14359 20.4242V11.5758C2.14359 9.3631 3.32408 7.31845 5.24037 6.21208L12.9032 1.78792Z" fill="#83E1E1"/>
</mask>
<g mask="url(#mask0_569_88)">
</g>
<path d="M11.0004 18.8213L11.0737 14.7055C11.084 14.1022 11.5801 13.6205 12.182 13.6308L12.9969 13.6462C13.5971 13.6565 14.0762 14.1553 14.066 14.7604L14.0387 16.2877V16.2706C14.0131 17.719 15.1606 18.9138 16.5996 18.9395L17.1281 18.9498C17.7283 18.9601 18.2073 19.4589 18.1971 20.064L18.1903 20.4806C18.1801 21.0839 17.6839 21.5656 17.0821 21.5553L13.9449 21.4988L13.563 21.4919C12.1223 21.4645 10.9748 20.2697 11.0004 18.8213Z" fill="#FFF9F9"/>
<path d="M18.5677 14.1311C19.7023 14.1311 20.6222 13.2063 20.6222 12.0656C20.6222 10.9248 19.7023 10 18.5677 10C17.433 10 16.5132 10.9248 16.5132 12.0656C16.5132 13.2063 17.433 14.1311 18.5677 14.1311Z" fill="#FFF9F9"/>
</g>
<defs>
<clipPath id="clip0_569_88">
<rect width="32" height="32" fill="white"/>
</clipPath>
</defs>
</svg>
