<svg width="16" height="16" viewBox="0 0 16 16" fill="none" xmlns="http://www.w3.org/2000/svg">
<path fill-rule="evenodd" clip-rule="evenodd" d="M7.91305 5.33333L7.13157 4.03087C6.93327 3.70037 6.63369 3.51137 6.33422 3.47319C5.75732 3.39966 5.03809 3.33333 4.33464 3.33333C3.84578 3.33333 3.34704 3.3654 2.89107 3.41029C2.47133 3.45161 2.16149 3.76341 2.12804 4.1995C2.06109 5.0724 2.0013 6.32176 2.0013 8C2.0013 9.18172 2.04434 10.2344 2.09901 11.0944C2.15004 11.8972 2.75882 12.5032 3.56783 12.5498C4.66562 12.6131 6.14344 12.6667 8.0013 12.6667C9.85917 12.6667 11.337 12.6131 12.4348 12.5498C13.2438 12.5032 13.8526 11.8972 13.9036 11.0944C13.9583 10.2344 14.0013 9.18172 14.0013 8C14.0013 7.35591 13.964 6.74448 13.9146 6.21861C13.8738 5.78461 13.55 5.46084 13.116 5.42006C12.5902 5.37066 11.9787 5.33333 11.3346 5.33333H7.91305ZM8.66797 4L8.27489 3.34488C7.88834 2.70063 7.24811 2.24557 6.50282 2.15056C5.8938 2.07293 5.11422 2 4.33464 2C3.79058 2 3.24653 2.03552 2.76045 2.08337C1.68909 2.18883 0.880951 3.02414 0.798616 4.09752C0.728874 5.00672 0.667969 6.29019 0.667969 8C0.667969 9.21369 0.71216 10.2948 0.768362 11.179C0.862342 12.6575 2.01205 13.7957 3.49108 13.8809C4.61439 13.9457 6.11779 14 8.0013 14C9.88481 14 11.3882 13.9457 12.5115 13.8809C13.9906 13.7957 15.1403 12.6575 15.2342 11.179C15.2904 10.2948 15.3346 9.21369 15.3346 8C15.3346 7.30591 15.2945 6.65197 15.2421 6.0939C15.1414 5.02208 14.3125 4.19327 13.2407 4.09258C12.6827 4.04015 12.0287 4 11.3346 4H8.66797Z" fill="#FCFCFD"/>
</svg>
