<svg width="16" height="12" viewBox="0 0 16 12" fill="none" xmlns="http://www.w3.org/2000/svg">
<path fill-rule="evenodd" clip-rule="evenodd" d="M8.4629 2.61137C8.20495 2.85892 7.79765 2.85892 7.5397 2.61137L7.0781 2.1684C6.53782 1.64992 5.80793 1.33333 5.0013 1.33333C3.34445 1.33333 2.0013 2.67648 2.0013 4.33333C2.0013 5.92175 2.86116 7.23337 4.10247 8.31104C5.34485 9.38963 6.83024 10.105 7.71773 10.47C7.9033 10.5464 8.0993 10.5464 8.28487 10.47C9.17237 10.105 10.6578 9.38963 11.9001 8.31104C13.1414 7.23337 14.0013 5.92175 14.0013 4.33333C14.0013 2.67648 12.6582 1.33333 11.0013 1.33333C10.1947 1.33333 9.46479 1.64991 8.9245 2.1684L8.4629 2.61137ZM8.0013 1.20638C7.22271 0.459203 6.16563 0 5.0013 0C2.60807 0 0.667969 1.9401 0.667969 4.33333C0.667969 8.57884 5.31486 10.9233 7.2105 11.7031C7.72101 11.9131 8.28159 11.9131 8.79211 11.7031C10.6877 10.9233 15.3346 8.57883 15.3346 4.33333C15.3346 1.9401 13.3945 0 11.0013 0C9.83697 0 8.7799 0.459203 8.0013 1.20638Z" fill="#FCFCFD"/>
</svg>
