<svg width="34" height="35" viewBox="0 0 34 35" fill="none" xmlns="http://www.w3.org/2000/svg">
<g clip-path="url(#clip0_2945_16238)">
<path fill-rule="evenodd" clip-rule="evenodd" d="M11.3119 23.1564C14.4361 26.2806 19.5014 26.2806 22.6256 23.1564C25.7498 20.0322 25.7498 14.9669 22.6256 11.8427C19.5014 8.71851 14.4361 8.71851 11.3119 11.8427C8.1877 14.9669 8.1877 20.0322 11.3119 23.1564ZM9.89768 24.5706C13.8029 28.4759 20.1346 28.4759 24.0398 24.5706C27.9451 20.6654 27.9451 14.3337 24.0398 10.4285C20.1346 6.52325 13.8029 6.52325 9.89768 10.4285C5.99244 14.3337 5.99244 20.6654 9.89768 24.5706Z" fill="#777E91"/>
<path fill-rule="evenodd" clip-rule="evenodd" d="M16.998 16.5C17.5503 16.5 17.498 16.5 17.998 16.5L17.9687 16.4996L21.2114 16.4996C21.7637 16.4996 22.2114 16.9473 22.2114 17.4996C22.2114 18.0519 21.7637 18.4996 21.2114 18.4996L17.9687 18.4996H17.498C16.998 18.5 17.521 18.4996 16.9688 18.4996C16.4165 18.4996 16.498 18.5 15.9688 18.4996L12.7261 18.4996C12.1738 18.4996 11.7261 18.0519 11.7261 17.4996C11.7261 16.9473 12.1738 16.4996 12.7261 16.4996L15.9688 16.4996L15.998 16.5C16.498 16.5 16.4458 16.5 16.998 16.5Z" fill="#777E91"/>
</g>
<defs>
<clipPath id="clip0_2945_16238">
<rect width="24" height="24" fill="white" transform="translate(16.9688 0.529297) rotate(45)"/>
</clipPath>
</defs>
</svg>
