<svg width="108" height="32" viewBox="0 0 108 32" fill="none" xmlns="http://www.w3.org/2000/svg">
<g clip-path="url(#clip0_2231_90973)">
<path d="M12.9032 1.78792C14.8195 0.681553 17.1805 0.681553 19.0968 1.78792L26.7596 6.21208C28.6759 7.31845 29.8564 9.3631 29.8564 11.5758V20.4242C29.8564 22.6369 28.6759 24.6816 26.7596 25.7879L19.0968 30.2121C17.1805 31.3184 14.8195 31.3184 12.9032 30.2121L5.24037 25.7879C3.32408 24.6816 2.14359 22.6369 2.14359 20.4242V11.5758C2.14359 9.3631 3.32408 7.31845 5.24037 6.21208L12.9032 1.78792Z" fill="black"/>
<mask id="mask0_2231_90973" style="mask-type:alpha" maskUnits="userSpaceOnUse" x="2" y="0" width="28" height="32">
<path d="M12.9032 1.78792C14.8195 0.681553 17.1805 0.681553 19.0968 1.78792L26.7596 6.21208C28.6759 7.31845 29.8564 9.3631 29.8564 11.5758V20.4242C29.8564 22.6369 28.6759 24.6816 26.7596 25.7879L19.0968 30.2121C17.1805 31.3184 14.8195 31.3184 12.9032 30.2121L5.24037 25.7879C3.32408 24.6816 2.14359 22.6369 2.14359 20.4242V11.5758C2.14359 9.3631 3.32408 7.31845 5.24037 6.21208L12.9032 1.78792Z" fill="#83E1E1"/>
</mask>
<g mask="url(#mask0_2231_90973)">
</g>
<path d="M11.0004 18.821L11.0737 14.7053C11.084 14.1019 11.5801 13.6202 12.182 13.6305L12.9969 13.646C13.5971 13.6562 14.0762 14.1551 14.066 14.7602L14.0387 16.2875V16.2703C14.0131 17.7188 15.1606 18.9136 16.5996 18.9393L17.1281 18.9496C17.7283 18.9599 18.2073 19.4587 18.1971 20.0638L18.1903 20.4803C18.1801 21.0837 17.6839 21.5654 17.0821 21.5551L13.9449 21.4985L13.563 21.4917C12.1223 21.4643 10.9748 20.2695 11.0004 18.821Z" fill="#FFF9F9"/>
<path d="M18.5672 14.1311C19.7019 14.1311 20.6217 13.2063 20.6217 12.0656C20.6217 10.9248 19.7019 10 18.5672 10C17.4325 10 16.5127 10.9248 16.5127 12.0656C16.5127 13.2063 17.4325 14.1311 18.5672 14.1311Z" fill="#FFF9F9"/>
</g>
<path d="M47.752 13.464H45.424V24H42.016V13.464H40.504V10.704H42.016V10.032C42.016 8.4 42.48 7.2 43.408 6.432C44.336 5.664 45.736 5.304 47.608 5.352V8.184C46.792 8.168 46.224 8.304 45.904 8.592C45.584 8.88 45.424 9.4 45.424 10.152V10.704H47.752V13.464ZM51.1534 9.12C50.5614 9.12 50.0654 8.936 49.6654 8.568C49.2814 8.184 49.0894 7.712 49.0894 7.152C49.0894 6.592 49.2814 6.128 49.6654 5.76C50.0654 5.376 50.5614 5.184 51.1534 5.184C51.7454 5.184 52.2334 5.376 52.6174 5.76C53.0174 6.128 53.2174 6.592 53.2174 7.152C53.2174 7.712 53.0174 8.184 52.6174 8.568C52.2334 8.936 51.7454 9.12 51.1534 9.12ZM52.8094 10.704V24H49.4494V10.704H52.8094ZM60.8571 10.488C61.8491 10.488 62.7211 10.688 63.4731 11.088C64.2251 11.472 64.8171 11.976 65.2491 12.6V10.704H68.6331V24.096C68.6331 25.328 68.3851 26.424 67.8891 27.384C67.3931 28.36 66.6491 29.128 65.6571 29.688C64.6651 30.264 63.4651 30.552 62.0571 30.552C60.1691 30.552 58.6171 30.112 57.4011 29.232C56.2011 28.352 55.5211 27.152 55.3611 25.632H58.6971C58.8731 26.24 59.2491 26.72 59.8251 27.072C60.4171 27.44 61.1291 27.624 61.9611 27.624C62.9371 27.624 63.7291 27.328 64.3371 26.736C64.9451 26.16 65.2491 25.28 65.2491 24.096V22.032C64.8171 22.656 64.2171 23.176 63.4491 23.592C62.6971 24.008 61.8331 24.216 60.8571 24.216C59.7371 24.216 58.7131 23.928 57.7851 23.352C56.8571 22.776 56.1211 21.968 55.5771 20.928C55.0491 19.872 54.7851 18.664 54.7851 17.304C54.7851 15.96 55.0491 14.768 55.5771 13.728C56.1211 12.688 56.8491 11.888 57.7611 11.328C58.6891 10.768 59.7211 10.488 60.8571 10.488ZM65.2491 17.352C65.2491 16.536 65.0891 15.84 64.7691 15.264C64.4491 14.672 64.0171 14.224 63.4731 13.92C62.9291 13.6 62.3451 13.44 61.7211 13.44C61.0971 13.44 60.5211 13.592 59.9931 13.896C59.4651 14.2 59.0331 14.648 58.6971 15.24C58.3771 15.816 58.2171 16.504 58.2171 17.304C58.2171 18.104 58.3771 18.808 58.6971 19.416C59.0331 20.008 59.4651 20.464 59.9931 20.784C60.5371 21.104 61.1131 21.264 61.7211 21.264C62.3451 21.264 62.9291 21.112 63.4731 20.808C64.0171 20.488 64.4491 20.04 64.7691 19.464C65.0891 18.872 65.2491 18.168 65.2491 17.352ZM84.1548 10.704L75.9227 30.288H72.3467L75.2267 23.664L69.8987 10.704H73.6667L77.0987 19.992L80.5787 10.704H84.1548ZM97.846 17.064C97.846 17.544 97.814 17.976 97.75 18.36H88.03C88.11 19.32 88.446 20.072 89.038 20.616C89.63 21.16 90.358 21.432 91.222 21.432C92.47 21.432 93.358 20.896 93.886 19.824H97.51C97.126 21.104 96.39 22.16 95.302 22.992C94.214 23.808 92.878 24.216 91.294 24.216C90.014 24.216 88.862 23.936 87.838 23.376C86.83 22.8 86.038 21.992 85.462 20.952C84.902 19.912 84.622 18.712 84.622 17.352C84.622 15.976 84.902 14.768 85.462 13.728C86.022 12.688 86.806 11.888 87.814 11.328C88.822 10.768 89.982 10.488 91.294 10.488C92.558 10.488 93.686 10.76 94.678 11.304C95.686 11.848 96.462 12.624 97.006 13.632C97.566 14.624 97.846 15.768 97.846 17.064ZM94.366 16.104C94.35 15.24 94.038 14.552 93.43 14.04C92.822 13.512 92.078 13.248 91.198 13.248C90.366 13.248 89.662 13.504 89.086 14.016C88.526 14.512 88.182 15.208 88.054 16.104H94.366ZM103.178 12.768C103.61 12.064 104.17 11.512 104.858 11.112C105.562 10.712 106.362 10.512 107.258 10.512V14.04H106.37C105.314 14.04 104.514 14.288 103.97 14.784C103.442 15.28 103.178 16.144 103.178 17.376V24H99.8185V10.704H103.178V12.768Z" fill="#23262F"/>
<defs>
<clipPath id="clip0_2231_90973">
<rect width="32" height="32" fill="white"/>
</clipPath>
</defs>
</svg>
