<svg width="109" height="32" viewBox="0 0 109 32" fill="none" xmlns="http://www.w3.org/2000/svg">
<g clip-path="url(#clip0_2781_10277)">
<path d="M12.9032 1.78792C14.8195 0.681553 17.1805 0.681553 19.0968 1.78792L26.7596 6.21208C28.6759 7.31845 29.8564 9.3631 29.8564 11.5758V20.4242C29.8564 22.6369 28.6759 24.6816 26.7596 25.7879L19.0968 30.2121C17.1805 31.3184 14.8195 31.3184 12.9032 30.2121L5.24037 25.7879C3.32408 24.6816 2.14359 22.6369 2.14359 20.4242V11.5758C2.14359 9.3631 3.32408 7.31845 5.24037 6.21208L12.9032 1.78792Z" fill="black"/>
<mask id="mask0_2781_10277" style="mask-type:alpha" maskUnits="userSpaceOnUse" x="2" y="0" width="28" height="32">
<path d="M12.9032 1.78792C14.8195 0.681553 17.1805 0.681553 19.0968 1.78792L26.7596 6.21208C28.6759 7.31845 29.8564 9.3631 29.8564 11.5758V20.4242C29.8564 22.6369 28.6759 24.6816 26.7596 25.7879L19.0968 30.2121C17.1805 31.3184 14.8195 31.3184 12.9032 30.2121L5.24037 25.7879C3.32408 24.6816 2.14359 22.6369 2.14359 20.4242V11.5758C2.14359 9.3631 3.32408 7.31845 5.24037 6.21208L12.9032 1.78792Z" fill="#83E1E1"/>
</mask>
<g mask="url(#mask0_2781_10277)">
</g>
<path d="M11.0004 18.821L11.0737 14.7053C11.084 14.1019 11.5801 13.6202 12.182 13.6305L12.9969 13.646C13.5971 13.6562 14.0762 14.1551 14.066 14.7602L14.0387 16.2875V16.2703C14.0131 17.7188 15.1606 18.9136 16.5996 18.9393L17.1281 18.9496C17.7283 18.9599 18.2073 19.4587 18.1971 20.0638L18.1903 20.4803C18.1801 21.0837 17.6839 21.5654 17.0821 21.5551L13.9449 21.4985L13.563 21.4917C12.1223 21.4643 10.9748 20.2695 11.0004 18.821Z" fill="#FFF9F9"/>
<path d="M18.5662 14.1311C19.7009 14.1311 20.6207 13.2063 20.6207 12.0656C20.6207 10.9248 19.7009 10 18.5662 10C17.4315 10 16.5117 10.9248 16.5117 12.0656C16.5117 13.2063 17.4315 14.1311 18.5662 14.1311Z" fill="#FFF9F9"/>
</g>
<path d="M52 7.248V9.96H45.016V14.256H50.368V16.92H45.016V24H41.656V7.248H52ZM55.6066 9.12C55.0146 9.12 54.5186 8.936 54.1186 8.568C53.7346 8.184 53.5426 7.712 53.5426 7.152C53.5426 6.592 53.7346 6.128 54.1186 5.76C54.5186 5.376 55.0146 5.184 55.6066 5.184C56.1986 5.184 56.6866 5.376 57.0706 5.76C57.4706 6.128 57.6706 6.592 57.6706 7.152C57.6706 7.712 57.4706 8.184 57.0706 8.568C56.6866 8.936 56.1986 9.12 55.6066 9.12ZM57.2626 10.704V24H53.9026V10.704H57.2626ZM65.3103 10.488C66.3023 10.488 67.1743 10.688 67.9263 11.088C68.6783 11.472 69.2703 11.976 69.7023 12.6V10.704H73.0863V24.096C73.0863 25.328 72.8383 26.424 72.3423 27.384C71.8463 28.36 71.1023 29.128 70.1103 29.688C69.1183 30.264 67.9183 30.552 66.5103 30.552C64.6223 30.552 63.0703 30.112 61.8543 29.232C60.6543 28.352 59.9743 27.152 59.8143 25.632H63.1503C63.3263 26.24 63.7023 26.72 64.2783 27.072C64.8703 27.44 65.5823 27.624 66.4143 27.624C67.3903 27.624 68.1823 27.328 68.7903 26.736C69.3983 26.16 69.7023 25.28 69.7023 24.096V22.032C69.2703 22.656 68.6703 23.176 67.9023 23.592C67.1503 24.008 66.2863 24.216 65.3103 24.216C64.1903 24.216 63.1663 23.928 62.2383 23.352C61.3103 22.776 60.5743 21.968 60.0303 20.928C59.5023 19.872 59.2383 18.664 59.2383 17.304C59.2383 15.96 59.5023 14.768 60.0303 13.728C60.5743 12.688 61.3023 11.888 62.2143 11.328C63.1423 10.768 64.1743 10.488 65.3103 10.488ZM69.7023 17.352C69.7023 16.536 69.5423 15.84 69.2223 15.264C68.9023 14.672 68.4703 14.224 67.9263 13.92C67.3823 13.6 66.7983 13.44 66.1743 13.44C65.5503 13.44 64.9743 13.592 64.4463 13.896C63.9183 14.2 63.4863 14.648 63.1503 15.24C62.8303 15.816 62.6703 16.504 62.6703 17.304C62.6703 18.104 62.8303 18.808 63.1503 19.416C63.4863 20.008 63.9183 20.464 64.4463 20.784C64.9903 21.104 65.5663 21.264 66.1743 21.264C66.7983 21.264 67.3823 21.112 67.9263 20.808C68.4703 20.488 68.9023 20.04 69.2223 19.464C69.5423 18.872 69.7023 18.168 69.7023 17.352ZM88.4399 10.704V24H85.0559V22.32C84.6239 22.896 84.0559 23.352 83.3519 23.688C82.6639 24.008 81.9119 24.168 81.0959 24.168C80.0559 24.168 79.1359 23.952 78.3359 23.52C77.5359 23.072 76.9039 22.424 76.4399 21.576C75.9919 20.712 75.7679 19.688 75.7679 18.504V10.704H79.1279V18.024C79.1279 19.08 79.3919 19.896 79.9199 20.472C80.4479 21.032 81.1679 21.312 82.0799 21.312C83.0079 21.312 83.7359 21.032 84.2639 20.472C84.7919 19.896 85.0559 19.08 85.0559 18.024V10.704H88.4399ZM94.6351 12.768C95.0671 12.064 95.6271 11.512 96.3151 11.112C97.0191 10.712 97.8191 10.512 98.7151 10.512V14.04H97.8271C96.7711 14.04 95.9711 14.288 95.4271 14.784C94.8991 15.28 94.6351 16.144 94.6351 17.376V24H91.2751V10.704H94.6351V12.768ZM103.858 12.768C104.29 12.064 104.85 11.512 105.538 11.112C106.242 10.712 107.042 10.512 107.938 10.512V14.04H107.05C105.994 14.04 105.194 14.288 104.65 14.784C104.122 15.28 103.858 16.144 103.858 17.376V24H100.498V10.704H103.858V12.768Z" fill="#23262F"/>
<defs>
<clipPath id="clip0_2781_10277">
<rect width="32" height="32" fill="white"/>
</clipPath>
</defs>
</svg>
