<svg width="25" height="28" viewBox="0 0 25 28" fill="none" xmlns="http://www.w3.org/2000/svg">
<path d="M3.70755 22.0207L4.20755 21.1547L3.70755 22.0207L10.0999 25.7113C11.6469 26.6045 13.5528 26.6045 15.0999 25.7113L21.4922 22.0207C23.0392 21.1276 23.9922 19.4769 23.9922 17.6906V10.3094C23.9922 8.52307 23.0392 6.87244 21.4922 5.97927L15.0999 2.28868C13.5528 1.39551 11.6469 1.39551 10.0999 2.28868L3.70755 5.97927C2.16054 6.87244 1.20755 8.52307 1.20755 10.3094V17.6906C1.20755 19.4769 2.16054 21.1276 3.70755 22.0207Z" fill="#45B36B" stroke="#FCFCFD" stroke-width="2"/>
<path d="M10.0003 16.4174L10.0536 13.4232C10.0611 12.9843 10.422 12.6339 10.8599 12.6414L11.4528 12.6526C11.8894 12.6601 12.2379 13.0229 12.2305 13.4632L12.2106 14.5743V14.5618C12.192 15.6156 13.0268 16.4847 14.0736 16.5034L14.4582 16.5109C14.8948 16.5184 15.2433 16.8813 15.2359 17.3215L15.2309 17.6245C15.2235 18.0635 14.8625 18.4139 14.4247 18.4064L12.1424 18.3653L11.8646 18.3603C10.8165 18.3403 9.9817 17.4712 10.0003 16.4174Z" fill="#FFF9F9"/>
<path d="M15.5054 13.0054C16.3308 13.0054 17 12.3326 17 11.5027C17 10.6728 16.3308 10 15.5054 10C14.6799 10 14.0107 10.6728 14.0107 11.5027C14.0107 12.3326 14.6799 13.0054 15.5054 13.0054Z" fill="#FFF9F9"/>
</svg>
