<svg width="10" height="10" viewBox="0 0 10 10" fill="none" xmlns="http://www.w3.org/2000/svg">
<path fill-rule="evenodd" clip-rule="evenodd" d="M0.527293 0.528758C0.787643 0.268409 1.20975 0.268409 1.4701 0.528758L4.9987 4.05735L8.52729 0.528758C8.78764 0.268409 9.20975 0.268409 9.4701 0.528758C9.73045 0.789108 9.73045 1.21122 9.4701 1.47157L5.94151 5.00016L9.4701 8.52876C9.73045 8.78911 9.73045 9.21122 9.4701 9.47157C9.20975 9.73192 8.78764 9.73192 8.52729 9.47157L4.9987 5.94297L1.4701 9.47157C1.20975 9.73192 0.787643 9.73192 0.527294 9.47157C0.266944 9.21122 0.266944 8.78911 0.527294 8.52876L4.05589 5.00016L0.527293 1.47157C0.266944 1.21122 0.266944 0.789108 0.527293 0.528758Z" fill="#777E91"/>
</svg>
