<svg width="34" height="35" viewBox="0 0 34 35" fill="none" xmlns="http://www.w3.org/2000/svg">
<g clip-path="url(#clip0_2945_16244)">
<path fill-rule="evenodd" clip-rule="evenodd" d="M11.3744 23.1564C14.4986 26.2806 19.5639 26.2806 22.6881 23.1564C25.8123 20.0322 25.8123 14.9669 22.6881 11.8427C19.5639 8.71851 14.4986 8.71851 11.3744 11.8427C8.2502 14.9669 8.2502 20.0322 11.3744 23.1564ZM9.96018 24.5706C13.8654 28.4759 20.1971 28.4759 24.1023 24.5706C28.0076 20.6654 28.0076 14.3337 24.1023 10.4285C20.1971 6.52325 13.8654 6.52325 9.96018 10.4285C6.05494 14.3337 6.05494 20.6654 9.96018 24.5706Z" fill="#777E91"/>
<path fill-rule="evenodd" clip-rule="evenodd" d="M17.0312 12.257C17.5835 12.257 18.0313 12.7047 18.0313 13.257L18.0312 16.4996L21.2739 16.4996C21.8262 16.4996 22.2739 16.9473 22.2739 17.4996C22.2739 18.0519 21.8262 18.4996 21.2739 18.4996L18.0312 18.4996V21.7423C18.0313 22.2946 17.5835 22.7423 17.0312 22.7423C16.479 22.7423 16.0312 22.2946 16.0313 21.7423V18.4996L12.7886 18.4996C12.2363 18.4996 11.7886 18.0519 11.7886 17.4996C11.7886 16.9473 12.2363 16.4996 12.7886 16.4996L16.0313 16.4996L16.0312 13.257C16.0312 12.7047 16.479 12.257 17.0312 12.257Z" fill="#777E91"/>
</g>
<defs>
<clipPath id="clip0_2945_16244">
<rect width="24" height="24" fill="white" transform="translate(17.0312 0.529297) rotate(45)"/>
</clipPath>
</defs>
</svg>
