<svg width="16" height="16" viewBox="0 0 16 16" fill="none" xmlns="http://www.w3.org/2000/svg">
<path fill-rule="evenodd" clip-rule="evenodd" d="M8 8.66634C5.42267 8.66634 3.33333 10.7557 3.33333 13.333V14.6663C3.33333 15.0345 3.03486 15.333 2.66667 15.333C2.29848 15.333 2 15.0345 2 14.6663V13.333C2 10.0193 4.68629 7.33301 8 7.33301C8.07322 7.42249 8.0886 7.33313 8 7.33301L8.05464 7.37259C8.05464 7.74078 8.02269 8.66634 8 8.66634Z" fill="#FCFCFD"/>
<path fill-rule="evenodd" clip-rule="evenodd" d="M8 7.33366C9.47276 7.33366 10.6667 6.13975 10.6667 4.66699C10.6667 3.19423 9.47276 2.00033 8 2.00033C6.52724 2.00033 5.33333 3.19423 5.33333 4.66699C5.33333 6.13975 6.52724 7.33366 8 7.33366ZM8 8.66699C10.2091 8.66699 12 6.87613 12 4.66699C12 2.45785 10.2091 0.666992 8 0.666992C5.79086 0.666992 4 2.45785 4 4.66699C4 6.87613 5.79086 8.66699 8 8.66699Z" fill="#FCFCFD"/>
<path fill-rule="evenodd" clip-rule="evenodd" d="M10.4375 9.56034C10.7406 9.56034 10.9863 9.80606 10.9863 10.1092L10.9863 11.8888L12.766 11.8888C13.0691 11.8888 13.3148 12.1346 13.3148 12.4377C13.3148 12.7408 13.0691 12.9865 12.766 12.9865H10.9863L10.9863 14.7662C10.9863 15.0693 10.7406 15.315 10.4375 15.315C10.1344 15.315 9.88867 15.0693 9.88867 14.7662L9.88867 12.9865H8.10901C7.8059 12.9865 7.56018 12.7408 7.56018 12.4377C7.56018 12.1346 7.8059 11.8888 8.10901 11.8888L9.88867 11.8888L9.88867 10.1092C9.88867 9.80606 10.1344 9.56034 10.4375 9.56034Z" fill="#FCFCFD"/>
</svg>
